# xmcd CD database file
#
# Track frame offsets:
#	150
#	13482
#	29955
#	53077
#	77355
#	115805
#	124525
#	142967
#	162662
#	192015
#
# Disc length: 2827 seconds
#
# Revision: 0
# Processed by: cddbd v1.5.1PL0 Copyright (c) Steve Scherf et al.
# Submitted via: CDex 1.51
#
DISCID=840b090a
DTITLE=Xtatika - Tongue Bath
DYEAR=2001
DGENRE=Alternative
TTITLE0=Sick Fuck
TTITLE1=Immolation
TTITLE2=Manic Holiday
TTITLE3=Taking The Angel
TTITLE4=Ghost Dance
TTITLE5=Gone
TTITLE6=Malady
TTITLE7=Out In The Woods, It's 3 AM
TTITLE8=Tongue
TTITLE9=Sunfire
EXTD=YEAR: 2001
EXTT0=
EXTT1=
EXTT2=
EXTT3=
EXTT4=
EXTT5=
EXTT6=
EXTT7=
EXTT8=
EXTT9=
PLAYORDER=
